<?xml version="1.0" encoding="utf-8"?>
<!-- Generator: Adobe Illustrator 26.3.1, SVG Export Plug-In . SVG Version: 6.00 Build 0)  -->
<svg version="1.1" id="Ebene_1" xmlns="http://www.w3.org/2000/svg" xmlns:xlink="http://www.w3.org/1999/xlink" x="0px" y="0px"
	 viewBox="0 0 517.2 68.4" style="enable-background:new 0 0 517.2 68.4;" xml:space="preserve">
<path d="M19.3,53.4c-3.5,0.1-6.9-0.8-9.9-2.6c-2.8-1.7-5.2-4.1-6.8-6.9c-3.4-6.1-3.4-13.4,0-19.5c1.6-2.9,4-5.2,6.8-6.9
	c3-1.7,6.5-2.6,9.9-2.6c3.5-0.1,7,0.8,10,2.6c2.9,1.7,5.2,4,6.8,6.9c3.3,6.1,3.3,13.4,0,19.5c-1.6,2.9-4,5.3-6.8,6.9
	C26.3,52.6,22.8,53.5,19.3,53.4z M19.4,47.7c2.3,0.1,4.6-0.6,6.5-1.8c1.9-1.2,3.4-2.9,4.4-4.9c2.1-4.3,2.1-9.4,0-13.8
	c-1-2-2.5-3.7-4.4-4.9c-2-1.2-4.2-1.9-6.5-1.8c-2.3-0.1-4.7,0.6-6.7,1.8c-1.9,1.2-3.4,2.9-4.4,4.9c-2.1,4.3-2.1,9.4,0,13.8
	c1,2,2.5,3.7,4.4,4.9C14.7,47.2,17,47.8,19.4,47.7z"/>
<path d="M64.3,53.4c-3.1,0-6.1-0.7-8.9-2.1c-2.5-1.3-4.7-3.3-6.1-5.7c-1.5-2.6-2.3-5.6-2.2-8.6V15.8h6.7V37c-0.1,2,0.4,4,1.4,5.7
	c0.9,1.6,2.3,2.8,3.8,3.7c1.6,0.9,3.4,1.3,5.1,1.3c1.8,0,3.6-0.4,5.2-1.3c1.6-0.9,3-2.1,3.9-3.7c1-1.7,1.5-3.7,1.5-5.7V15.8h6.7
	v21.2c0.1,3-0.7,6-2.2,8.6c-1.5,2.4-3.6,4.4-6.1,5.7C70.4,52.8,67.4,53.5,64.3,53.4z"/>
<path d="M113.3,21.5v-5.7h-12.6V6.6h-6.6v35.5c-0.1,2.8,0.9,5.6,2.8,7.6c2.1,2,4.8,3,7.7,2.8h8.6v-5.7h-7.4
	c-1.4,0.1-2.7-0.4-3.7-1.4c-0.9-1-1.4-2.4-1.3-3.8V21.5H113.3z"/>
<path d="M184.5,53.4c-3.1,0-6.1-0.7-8.9-2.1c-2.5-1.3-4.7-3.3-6.1-5.7c-1.5-2.6-2.3-5.6-2.2-8.6V15.8h6.7V37c-0.1,2,0.4,4,1.4,5.7
	c0.9,1.6,2.3,2.8,3.9,3.7c1.6,0.9,3.4,1.3,5.1,1.3c1.8,0,3.6-0.4,5.2-1.3c1.6-0.9,3-2.1,3.9-3.7c1-1.7,1.5-3.7,1.5-5.7V15.8h6.7
	v21.2c0.1,3-0.7,6-2.2,8.6c-1.5,2.4-3.6,4.4-6.1,5.7C190.6,52.8,187.6,53.5,184.5,53.4z"/>
<path d="M445.5,52.6V26.3c-0.5-5.3,3.4-10,8.7-10.4c0.6-0.1,1.2-0.1,1.7,0h7.6v5.7h-6.3c-1.4-0.1-2.7,0.4-3.7,1.4
	c-0.9,1-1.4,2.4-1.3,3.8v25.8H445.5z"/>
<path d="M488.2,52.6c-3.7,0.1-7.4-0.7-10.7-2.3c-3-1.4-5.5-3.6-7.3-6.4c-1.8-2.9-2.7-6.3-2.6-9.7c-0.1-3.4,0.7-6.8,2.2-9.8
	c1.4-2.8,3.5-5.2,6.2-6.9c2.8-1.7,6-2.6,9.2-2.5c3.3-0.1,6.6,0.7,9.5,2.4c2.5,1.6,4.5,3.9,5.6,6.6c1.3,2.9,1.9,6.1,1.9,9.2
	c0,0.5,0,1.1,0,1.6c0,0.5-0.1,1-0.2,1.5h-27.4c0.2,2.1,0.9,4.1,2.2,5.7c1.3,1.6,2.9,2.8,4.8,3.5c2,0.8,4.2,1.2,6.4,1.2h9.6v5.7
	L488.2,52.6z M474.5,31.8h21c0-1-0.1-2-0.3-2.9c-0.2-1-0.5-2.1-1-3c-0.5-1-1.1-1.9-1.9-2.7c-0.8-0.8-1.8-1.5-3-1.9
	c-1.3-0.5-2.7-0.8-4.1-0.7c-1.5,0-3,0.3-4.4,1c-1.3,0.6-2.4,1.5-3.3,2.6c-0.9,1.1-1.6,2.3-2.1,3.6C475,29,474.6,30.4,474.5,31.8z"/>
<path d="M510.6,52.6V0h6.6v52.6H510.6z"/>
<path d="M157.1,24.4c-1.6-2.9-4-5.3-6.8-6.9c-3-1.7-6.5-2.6-10-2.6c-3.5-0.1-6.9,0.8-9.9,2.6c-2.8,1.7-5.2,4-6.8,6.9
	c-1.7,3-2.6,6.3-2.5,9.8c0,0.1,0,0.3,0,0.4l0,0v33.7h6.7V48.9c0.8,0.7,1.7,1.4,2.7,1.9c3,1.7,6.5,2.6,9.9,2.6c3.5,0.1,7-0.8,10-2.6
	c2.9-1.7,5.2-4,6.8-6.9C160.4,37.9,160.4,30.5,157.1,24.4L157.1,24.4z M151.3,41.1c-1,2-2.5,3.7-4.4,4.9c-2,1.2-4.2,1.9-6.6,1.8
	c-2.3,0.1-4.7-0.6-6.7-1.8c-1.9-1.2-3.4-2.9-4.4-4.9c-2.1-4.3-2.1-9.4,0-13.8c1-2,2.5-3.7,4.4-4.9c2-1.2,4.3-1.9,6.7-1.8
	c2.3-0.1,4.6,0.6,6.6,1.8c1.9,1.2,3.4,2.9,4.4,4.9C153.4,31.7,153.4,36.7,151.3,41.1z"/>
<path d="M233.5,21.5v-5.7h-12.6V6.6h-6.6v35.5c-0.1,2.8,0.8,5.6,2.8,7.6c2.1,2,4.8,3,7.7,2.8h8.6v-5.7h-7.5
	c-1.4,0.1-2.7-0.4-3.7-1.4c-0.9-1-1.4-2.4-1.3-3.8V21.5H233.5z"/>
<path d="M296.6,33.9c0-3.3-0.9-6.6-2.5-9.4c-1.6-2.9-4-5.3-6.8-6.9c-6.2-3.4-13.7-3.4-19.9,0c-2.8,1.7-5.2,4-6.8,6.9
	c-3.4,6.1-3.4,13.4,0,19.5c1.6,2.9,4,5.2,6.8,6.9c6.2,3.4,13.7,3.4,19.9,0c0.9-0.5,1.8-1.2,2.6-1.9v4.4h6.7L296.6,33.9L296.6,33.9z
	 M288.4,41.1c-1,2-2.5,3.7-4.4,4.9c-2,1.2-4.2,1.9-6.5,1.8c-2.3,0.1-4.7-0.6-6.7-1.8c-1.9-1.2-3.4-2.9-4.4-4.9
	c-2.1-4.3-2.1-9.4,0-13.8c1-2,2.5-3.7,4.4-4.9c2-1.2,4.3-1.9,6.7-1.8c2.3-0.1,4.6,0.6,6.5,1.8c1.9,1.2,3.4,2.9,4.4,4.9
	C290.5,31.7,290.5,36.7,288.4,41.1z"/>
<path d="M342.6,24.4c-1.6-2.9-4-5.3-6.8-6.9c-3-1.7-6.5-2.6-10-2.6c-3.5-0.1-6.9,0.8-9.9,2.6c-2.8,1.7-5.2,4-6.8,6.9
	c-1.7,3-2.6,6.3-2.5,9.8c0,0.1,0,0.3,0,0.4l0,0v33.7h6.7V48.9c0.8,0.7,1.7,1.4,2.7,1.9c3,1.7,6.5,2.6,9.9,2.6c3.5,0.1,7-0.8,10-2.6
	c2.9-1.7,5.2-4,6.8-6.9C345.9,37.9,345.9,30.5,342.6,24.4L342.6,24.4z M336.8,41.1c-1,2-2.5,3.7-4.4,4.9c-2,1.2-4.2,1.9-6.5,1.8
	c-2.3,0.1-4.7-0.6-6.7-1.8c-1.9-1.2-3.4-2.9-4.4-4.9c-2.1-4.3-2.1-9.4,0-13.8c1-2,2.5-3.7,4.4-4.9c2-1.2,4.3-1.9,6.7-1.8
	c2.3-0.1,4.6,0.6,6.5,1.8c1.9,1.2,3.4,2.9,4.4,4.9C338.9,31.7,338.9,36.7,336.8,41.1z"/>
<path d="M388.6,24.4c-1.6-2.9-4-5.3-6.8-6.9c-3-1.7-6.5-2.6-10-2.6c-3.5-0.1-6.9,0.8-9.9,2.6c-2.8,1.7-5.2,4-6.8,6.9
	c-1.7,3-2.6,6.3-2.5,9.8c0,0.1,0,0.3,0,0.4l0,0v33.7h6.7V48.9c0.8,0.7,1.7,1.4,2.7,1.9c3,1.7,6.4,2.6,9.9,2.6c3.5,0.1,7-0.8,10-2.6
	c2.9-1.7,5.2-4,6.8-6.9C391.9,37.9,391.9,30.5,388.6,24.4L388.6,24.4z M382.8,41.1c-1,2-2.5,3.7-4.4,4.9c-2,1.2-4.2,1.9-6.5,1.8
	c-2.3,0.1-4.7-0.6-6.7-1.8c-1.9-1.2-3.4-2.9-4.4-4.9c-2.1-4.3-2.1-9.4,0-13.8c1-2,2.5-3.7,4.4-4.9c2-1.2,4.3-1.9,6.7-1.8
	c2.3-0.1,4.6,0.6,6.5,1.8c1.9,1.2,3.4,2.9,4.4,4.9C384.9,31.7,384.9,36.7,382.8,41.1z"/>
<path d="M435.4,33.9c0-3.3-0.8-6.6-2.5-9.4c-1.6-2.9-4-5.3-6.8-6.9c-3-1.7-6.5-2.6-10-2.6c-3.5-0.1-6.9,0.8-9.9,2.6
	c-2.8,1.7-5.2,4-6.8,6.9c-3.4,6.1-3.4,13.4,0,19.5c1.6,2.9,4,5.2,6.8,6.9c3,1.7,6.5,2.6,9.9,2.6c3.5,0.1,7-0.8,10-2.6
	c0.9-0.5,1.8-1.2,2.6-1.9v4.4h6.7L435.4,33.9L435.4,33.9z M427.2,41.1c-1,2-2.5,3.7-4.4,4.9c-2,1.2-4.2,1.9-6.5,1.8
	c-2.3,0.1-4.7-0.6-6.7-1.8c-1.9-1.2-3.4-2.9-4.4-4.9c-2.1-4.3-2.1-9.4,0-13.8c1-2,2.5-3.7,4.4-4.9c2-1.2,4.3-1.9,6.7-1.8
	c2.3-0.1,4.6,0.6,6.5,1.8c1.9,1.2,3.4,2.9,4.4,4.9C429.2,31.7,429.2,36.7,427.2,41.1L427.2,41.1z"/>
</svg>
